<?xml version="1.0" encoding="utf-8" standalone="no"?>
<!DOCTYPE svg PUBLIC "-//W3C//DTD SVG 1.1//EN"
  "http://www.w3.org/Graphics/SVG/1.1/DTD/svg11.dtd">
<svg xmlns:xlink="http://www.w3.org/1999/xlink" width="1166.326023pt" height="1236.1pt" viewBox="0 0 1166.326023 1236.1" xmlns="http://www.w3.org/2000/svg" version="1.1">
 <metadata>
  <rdf:RDF xmlns:dc="http://purl.org/dc/elements/1.1/" xmlns:cc="http://creativecommons.org/ns#" xmlns:rdf="http://www.w3.org/1999/02/22-rdf-syntax-ns#">
   <cc:Work>
    <dc:type rdf:resource="http://purl.org/dc/dcmitype/StillImage"/>
    <dc:date>2025-04-30T20:52:47.351740</dc:date>
    <dc:format>image/svg+xml</dc:format>
    <dc:creator>
     <cc:Agent>
      <dc:title>Matplotlib v3.10.1, https://matplotlib.org/</dc:title>
     </cc:Agent>
    </dc:creator>
   </cc:Work>
  </rdf:RDF>
 </metadata>
 <defs>
  <style type="text/css">*{stroke-linejoin: round; stroke-linecap: butt}</style>
 </defs>
 <g id="figure_1">
  <g id="patch_1">
   <path d="M 0 1236.1 
L 1166.326023 1236.1 
L 1166.326023 0 
L 0 0 
L 0 1236.1 
z
" style="fill: none"/>
  </g>
  <g id="axes_1">
   <g id="matplotlib.axis_1"/>
   <g id="matplotlib.axis_2"/>
   <g id="patch_2">
    <path d="M 275.739375 176.050375 
C 251.278066 176.050375 226.995472 180.228223 203.940715 188.403417 
C 180.885957 196.578612 159.395914 208.631695 140.399055 224.041918 
C 121.402196 239.452142 105.176104 257.99433 92.421823 278.867373 
C 79.667542 299.740417 70.571438 322.639318 65.526504 346.574737 
C 60.481571 370.510156 59.561526 395.132348 62.806118 419.377517 
C 66.050711 443.622687 73.412532 467.136564 84.573515 488.903237 
C 95.734499 510.669911 110.53156 530.371326 128.325397 547.156289 
C 146.119235 563.941253 166.649843 577.564502 189.030204 587.437448 
C 211.410566 597.310394 235.313657 603.288773 259.706753 605.114292 
C 284.099848 606.939811 308.626515 604.585794 332.227087 598.153947 
C 355.827658 591.7221 378.157282 581.306404 398.251213 567.356868 
C 418.345143 553.407331 435.909769 536.127784 450.186213 516.264784 
C 464.462658 496.401785 475.242315 474.245571 482.059452 450.753397 
C 488.876589 427.261222 491.631594 402.776354 490.205438 378.356655 
C 488.779282 353.936956 483.192804 329.939246 473.687365 307.40034 
C 464.181927 284.861435 450.896422 264.110672 434.404847 246.044582 
L 275.739375 390.881875 
z
" style="fill: #e78ac3; stroke: #ffffff; stroke-linejoin: miter"/>
   </g>
   <g id="patch_3">
    <path d="M 434.40482 246.044552 
C 417.878655 227.940574 398.375197 212.797908 376.740579 201.273512 
C 355.10596 189.749116 331.657635 182.01208 307.412896 178.398087 
L 275.739375 390.881875 
z
" style="fill: #e5c494; stroke: #ffffff; stroke-linejoin: miter"/>
   </g>
   <g id="patch_4">
    <path d="M 307.412896 178.398087 
C 302.978428 177.737069 298.524349 177.215037 294.057212 176.832745 
C 289.590076 176.450453 285.112061 176.208094 280.629758 176.106038 
L 275.739375 390.881875 
z
" style="fill: #66c2a5; stroke: #ffffff; stroke-linejoin: miter"/>
   </g>
   <g id="patch_5">
    <path d="M 280.629758 176.106038 
C 280.222291 176.096755 279.814797 176.088636 279.407283 176.081683 
C 278.999769 176.07473 278.592236 176.068929 278.184689 176.064294 
L 275.739375 390.881875 
z
" style="fill: #fc8d62; stroke: #ffffff; stroke-linejoin: miter"/>
   </g>
   <g id="patch_6">
    <path d="M 278.184689 176.064294 
C 277.777159 176.059659 277.369565 176.056176 276.962015 176.053858 
C 276.554466 176.05154 276.146961 176.050375 275.739405 176.050375 
L 275.739375 390.881875 
z
" style="fill: #a6d854; stroke: #ffffff; stroke-linejoin: miter"/>
   </g>
   <g id="text_1">
    <!-- 86.8% -->
    <g transform="translate(201.03142 512.95149) scale(0.16 -0.16)">
     <defs>
      <path id="ArialMT-38" d="M 1131 2484 
Q 781 2613 612 2850 
Q 444 3088 444 3419 
Q 444 3919 803 4259 
Q 1163 4600 1759 4600 
Q 2359 4600 2725 4251 
Q 3091 3903 3091 3403 
Q 3091 3084 2923 2848 
Q 2756 2613 2416 2484 
Q 2838 2347 3058 2040 
Q 3278 1734 3278 1309 
Q 3278 722 2862 322 
Q 2447 -78 1769 -78 
Q 1091 -78 675 323 
Q 259 725 259 1325 
Q 259 1772 486 2073 
Q 713 2375 1131 2484 
z
M 1019 3438 
Q 1019 3113 1228 2906 
Q 1438 2700 1772 2700 
Q 2097 2700 2305 2904 
Q 2513 3109 2513 3406 
Q 2513 3716 2298 3927 
Q 2084 4138 1766 4138 
Q 1444 4138 1231 3931 
Q 1019 3725 1019 3438 
z
M 838 1322 
Q 838 1081 952 856 
Q 1066 631 1291 507 
Q 1516 384 1775 384 
Q 2178 384 2440 643 
Q 2703 903 2703 1303 
Q 2703 1709 2433 1975 
Q 2163 2241 1756 2241 
Q 1359 2241 1098 1978 
Q 838 1716 838 1322 
z
" transform="scale(0.015625)"/>
      <path id="ArialMT-36" d="M 3184 3459 
L 2625 3416 
Q 2550 3747 2413 3897 
Q 2184 4138 1850 4138 
Q 1581 4138 1378 3988 
Q 1113 3794 959 3422 
Q 806 3050 800 2363 
Q 1003 2672 1297 2822 
Q 1591 2972 1913 2972 
Q 2475 2972 2870 2558 
Q 3266 2144 3266 1488 
Q 3266 1056 3080 686 
Q 2894 316 2569 119 
Q 2244 -78 1831 -78 
Q 1128 -78 684 439 
Q 241 956 241 2144 
Q 241 3472 731 4075 
Q 1159 4600 1884 4600 
Q 2425 4600 2770 4297 
Q 3116 3994 3184 3459 
z
M 888 1484 
Q 888 1194 1011 928 
Q 1134 663 1356 523 
Q 1578 384 1822 384 
Q 2178 384 2434 671 
Q 2691 959 2691 1453 
Q 2691 1928 2437 2201 
Q 2184 2475 1800 2475 
Q 1419 2475 1153 2201 
Q 888 1928 888 1484 
z
" transform="scale(0.015625)"/>
      <path id="ArialMT-2e" d="M 581 0 
L 581 641 
L 1222 641 
L 1222 0 
L 581 0 
z
" transform="scale(0.015625)"/>
      <path id="ArialMT-25" d="M 372 3481 
Q 372 3972 619 4315 
Q 866 4659 1334 4659 
Q 1766 4659 2048 4351 
Q 2331 4044 2331 3447 
Q 2331 2866 2045 2552 
Q 1759 2238 1341 2238 
Q 925 2238 648 2547 
Q 372 2856 372 3481 
z
M 1350 4272 
Q 1141 4272 1002 4090 
Q 863 3909 863 3425 
Q 863 2984 1003 2804 
Q 1144 2625 1350 2625 
Q 1563 2625 1702 2806 
Q 1841 2988 1841 3469 
Q 1841 3913 1700 4092 
Q 1559 4272 1350 4272 
z
M 1353 -169 
L 3859 4659 
L 4316 4659 
L 1819 -169 
L 1353 -169 
z
M 3334 1075 
Q 3334 1569 3581 1911 
Q 3828 2253 4300 2253 
Q 4731 2253 5014 1945 
Q 5297 1638 5297 1041 
Q 5297 459 5011 145 
Q 4725 -169 4303 -169 
Q 3888 -169 3611 142 
Q 3334 453 3334 1075 
z
M 4316 1866 
Q 4103 1866 3964 1684 
Q 3825 1503 3825 1019 
Q 3825 581 3965 400 
Q 4106 219 4313 219 
Q 4528 219 4667 400 
Q 4806 581 4806 1063 
Q 4806 1506 4665 1686 
Q 4525 1866 4316 1866 
z
" transform="scale(0.015625)"/>
     </defs>
     <use xlink:href="#ArialMT-38"/>
     <use xlink:href="#ArialMT-36" transform="translate(55.615234 0)"/>
     <use xlink:href="#ArialMT-2e" transform="translate(111.230469 0)"/>
     <use xlink:href="#ArialMT-38" transform="translate(139.013672 0)"/>
     <use xlink:href="#ArialMT-25" transform="translate(194.628906 0)"/>
    </g>
   </g>
   <g id="text_2">
    <!-- 10.9% -->
    <g transform="translate(313.65754 281.253079) scale(0.16 -0.16)">
     <defs>
      <path id="ArialMT-31" d="M 2384 0 
L 1822 0 
L 1822 3584 
Q 1619 3391 1289 3197 
Q 959 3003 697 2906 
L 697 3450 
Q 1169 3672 1522 3987 
Q 1875 4303 2022 4600 
L 2384 4600 
L 2384 0 
z
" transform="scale(0.015625)"/>
      <path id="ArialMT-30" d="M 266 2259 
Q 266 3072 433 3567 
Q 600 4063 929 4331 
Q 1259 4600 1759 4600 
Q 2128 4600 2406 4451 
Q 2684 4303 2865 4023 
Q 3047 3744 3150 3342 
Q 3253 2941 3253 2259 
Q 3253 1453 3087 958 
Q 2922 463 2592 192 
Q 2263 -78 1759 -78 
Q 1097 -78 719 397 
Q 266 969 266 2259 
z
M 844 2259 
Q 844 1131 1108 757 
Q 1372 384 1759 384 
Q 2147 384 2411 759 
Q 2675 1134 2675 2259 
Q 2675 3391 2411 3762 
Q 2147 4134 1753 4134 
Q 1366 4134 1134 3806 
Q 844 3388 844 2259 
z
" transform="scale(0.015625)"/>
      <path id="ArialMT-39" d="M 350 1059 
L 891 1109 
Q 959 728 1153 556 
Q 1347 384 1650 384 
Q 1909 384 2104 503 
Q 2300 622 2425 820 
Q 2550 1019 2634 1356 
Q 2719 1694 2719 2044 
Q 2719 2081 2716 2156 
Q 2547 1888 2255 1720 
Q 1963 1553 1622 1553 
Q 1053 1553 659 1965 
Q 266 2378 266 3053 
Q 266 3750 677 4175 
Q 1088 4600 1706 4600 
Q 2153 4600 2523 4359 
Q 2894 4119 3086 3673 
Q 3278 3228 3278 2384 
Q 3278 1506 3087 986 
Q 2897 466 2520 194 
Q 2144 -78 1638 -78 
Q 1100 -78 759 220 
Q 419 519 350 1059 
z
M 2653 3081 
Q 2653 3566 2395 3850 
Q 2138 4134 1775 4134 
Q 1400 4134 1122 3828 
Q 844 3522 844 3034 
Q 844 2597 1108 2323 
Q 1372 2050 1759 2050 
Q 2150 2050 2401 2323 
Q 2653 2597 2653 3081 
z
" transform="scale(0.015625)"/>
     </defs>
     <use xlink:href="#ArialMT-31"/>
     <use xlink:href="#ArialMT-30" transform="translate(55.615234 0)"/>
     <use xlink:href="#ArialMT-2e" transform="translate(111.230469 0)"/>
     <use xlink:href="#ArialMT-39" transform="translate(139.013672 0)"/>
     <use xlink:href="#ArialMT-25" transform="translate(194.628906 0)"/>
    </g>
   </g>
   <g id="text_3">
    <!-- Espírito Santo -->
    <g style="fill: #262626" transform="translate(216.070469 116.3425) scale(0.19 -0.19)">
     <defs>
      <path id="ArialMT-45" d="M 506 0 
L 506 4581 
L 3819 4581 
L 3819 4041 
L 1113 4041 
L 1113 2638 
L 3647 2638 
L 3647 2100 
L 1113 2100 
L 1113 541 
L 3925 541 
L 3925 0 
L 506 0 
z
" transform="scale(0.015625)"/>
      <path id="ArialMT-73" d="M 197 991 
L 753 1078 
Q 800 744 1014 566 
Q 1228 388 1613 388 
Q 2000 388 2187 545 
Q 2375 703 2375 916 
Q 2375 1106 2209 1216 
Q 2094 1291 1634 1406 
Q 1016 1563 777 1677 
Q 538 1791 414 1992 
Q 291 2194 291 2438 
Q 291 2659 392 2848 
Q 494 3038 669 3163 
Q 800 3259 1026 3326 
Q 1253 3394 1513 3394 
Q 1903 3394 2198 3281 
Q 2494 3169 2634 2976 
Q 2775 2784 2828 2463 
L 2278 2388 
Q 2241 2644 2061 2787 
Q 1881 2931 1553 2931 
Q 1166 2931 1000 2803 
Q 834 2675 834 2503 
Q 834 2394 903 2306 
Q 972 2216 1119 2156 
Q 1203 2125 1616 2013 
Q 2213 1853 2448 1751 
Q 2684 1650 2818 1456 
Q 2953 1263 2953 975 
Q 2953 694 2789 445 
Q 2625 197 2315 61 
Q 2006 -75 1616 -75 
Q 969 -75 630 194 
Q 291 463 197 991 
z
" transform="scale(0.015625)"/>
      <path id="ArialMT-70" d="M 422 -1272 
L 422 3319 
L 934 3319 
L 934 2888 
Q 1116 3141 1344 3267 
Q 1572 3394 1897 3394 
Q 2322 3394 2647 3175 
Q 2972 2956 3137 2557 
Q 3303 2159 3303 1684 
Q 3303 1175 3120 767 
Q 2938 359 2589 142 
Q 2241 -75 1856 -75 
Q 1575 -75 1351 44 
Q 1128 163 984 344 
L 984 -1272 
L 422 -1272 
z
M 931 1641 
Q 931 1000 1190 694 
Q 1450 388 1819 388 
Q 2194 388 2461 705 
Q 2728 1022 2728 1688 
Q 2728 2322 2467 2637 
Q 2206 2953 1844 2953 
Q 1484 2953 1207 2617 
Q 931 2281 931 1641 
z
" transform="scale(0.015625)"/>
      <path id="ArialMT-ed" d="M 619 0 
L 619 3319 
L 1181 3319 
L 1181 0 
L 619 0 
z
M 590 3731 
L 1005 4606 
L 1743 4606 
L 1055 3731 
L 590 3731 
z
" transform="scale(0.015625)"/>
      <path id="ArialMT-72" d="M 416 0 
L 416 3319 
L 922 3319 
L 922 2816 
Q 1116 3169 1280 3281 
Q 1444 3394 1641 3394 
Q 1925 3394 2219 3213 
L 2025 2691 
Q 1819 2813 1613 2813 
Q 1428 2813 1281 2702 
Q 1134 2591 1072 2394 
Q 978 2094 978 1738 
L 978 0 
L 416 0 
z
" transform="scale(0.015625)"/>
      <path id="ArialMT-69" d="M 425 3934 
L 425 4581 
L 988 4581 
L 988 3934 
L 425 3934 
z
M 425 0 
L 425 3319 
L 988 3319 
L 988 0 
L 425 0 
z
" transform="scale(0.015625)"/>
      <path id="ArialMT-74" d="M 1650 503 
L 1731 6 
Q 1494 -44 1306 -44 
Q 1000 -44 831 53 
Q 663 150 594 308 
Q 525 466 525 972 
L 525 2881 
L 113 2881 
L 113 3319 
L 525 3319 
L 525 4141 
L 1084 4478 
L 1084 3319 
L 1650 3319 
L 1650 2881 
L 1084 2881 
L 1084 941 
Q 1084 700 1114 631 
Q 1144 563 1211 522 
Q 1278 481 1403 481 
Q 1497 481 1650 503 
z
" transform="scale(0.015625)"/>
      <path id="ArialMT-6f" d="M 213 1659 
Q 213 2581 725 3025 
Q 1153 3394 1769 3394 
Q 2453 3394 2887 2945 
Q 3322 2497 3322 1706 
Q 3322 1066 3130 698 
Q 2938 331 2570 128 
Q 2203 -75 1769 -75 
Q 1072 -75 642 372 
Q 213 819 213 1659 
z
M 791 1659 
Q 791 1022 1069 705 
Q 1347 388 1769 388 
Q 2188 388 2466 706 
Q 2744 1025 2744 1678 
Q 2744 2294 2464 2611 
Q 2184 2928 1769 2928 
Q 1347 2928 1069 2612 
Q 791 2297 791 1659 
z
" transform="scale(0.015625)"/>
      <path id="ArialMT-20" transform="scale(0.015625)"/>
      <path id="ArialMT-53" d="M 288 1472 
L 859 1522 
Q 900 1178 1048 958 
Q 1197 738 1509 602 
Q 1822 466 2213 466 
Q 2559 466 2825 569 
Q 3091 672 3220 851 
Q 3350 1031 3350 1244 
Q 3350 1459 3225 1620 
Q 3100 1781 2813 1891 
Q 2628 1963 1997 2114 
Q 1366 2266 1113 2400 
Q 784 2572 623 2826 
Q 463 3081 463 3397 
Q 463 3744 659 4045 
Q 856 4347 1234 4503 
Q 1613 4659 2075 4659 
Q 2584 4659 2973 4495 
Q 3363 4331 3572 4012 
Q 3781 3694 3797 3291 
L 3216 3247 
Q 3169 3681 2898 3903 
Q 2628 4125 2100 4125 
Q 1550 4125 1298 3923 
Q 1047 3722 1047 3438 
Q 1047 3191 1225 3031 
Q 1400 2872 2139 2705 
Q 2878 2538 3153 2413 
Q 3553 2228 3743 1945 
Q 3934 1663 3934 1294 
Q 3934 928 3725 604 
Q 3516 281 3123 101 
Q 2731 -78 2241 -78 
Q 1619 -78 1198 103 
Q 778 284 539 648 
Q 300 1013 288 1472 
z
" transform="scale(0.015625)"/>
      <path id="ArialMT-61" d="M 2588 409 
Q 2275 144 1986 34 
Q 1697 -75 1366 -75 
Q 819 -75 525 192 
Q 231 459 231 875 
Q 231 1119 342 1320 
Q 453 1522 633 1644 
Q 813 1766 1038 1828 
Q 1203 1872 1538 1913 
Q 2219 1994 2541 2106 
Q 2544 2222 2544 2253 
Q 2544 2597 2384 2738 
Q 2169 2928 1744 2928 
Q 1347 2928 1158 2789 
Q 969 2650 878 2297 
L 328 2372 
Q 403 2725 575 2942 
Q 747 3159 1072 3276 
Q 1397 3394 1825 3394 
Q 2250 3394 2515 3294 
Q 2781 3194 2906 3042 
Q 3031 2891 3081 2659 
Q 3109 2516 3109 2141 
L 3109 1391 
Q 3109 606 3145 398 
Q 3181 191 3288 0 
L 2700 0 
Q 2613 175 2588 409 
z
M 2541 1666 
Q 2234 1541 1622 1453 
Q 1275 1403 1131 1340 
Q 988 1278 909 1158 
Q 831 1038 831 891 
Q 831 666 1001 516 
Q 1172 366 1500 366 
Q 1825 366 2078 508 
Q 2331 650 2450 897 
Q 2541 1088 2541 1459 
L 2541 1666 
z
" transform="scale(0.015625)"/>
      <path id="ArialMT-6e" d="M 422 0 
L 422 3319 
L 928 3319 
L 928 2847 
Q 1294 3394 1984 3394 
Q 2284 3394 2536 3286 
Q 2788 3178 2913 3003 
Q 3038 2828 3088 2588 
Q 3119 2431 3119 2041 
L 3119 0 
L 2556 0 
L 2556 2019 
Q 2556 2363 2490 2533 
Q 2425 2703 2258 2804 
Q 2091 2906 1866 2906 
Q 1506 2906 1245 2678 
Q 984 2450 984 1813 
L 984 0 
L 422 0 
z
" transform="scale(0.015625)"/>
     </defs>
     <use xlink:href="#ArialMT-45"/>
     <use xlink:href="#ArialMT-73" transform="translate(66.699219 0)"/>
     <use xlink:href="#ArialMT-70" transform="translate(116.699219 0)"/>
     <use xlink:href="#ArialMT-ed" transform="translate(172.314453 0)"/>
     <use xlink:href="#ArialMT-72" transform="translate(200.097656 0)"/>
     <use xlink:href="#ArialMT-69" transform="translate(233.398438 0)"/>
     <use xlink:href="#ArialMT-74" transform="translate(255.615234 0)"/>
     <use xlink:href="#ArialMT-6f" transform="translate(283.398438 0)"/>
     <use xlink:href="#ArialMT-20" transform="translate(339.013672 0)"/>
     <use xlink:href="#ArialMT-53" transform="translate(366.796875 0)"/>
     <use xlink:href="#ArialMT-61" transform="translate(433.496094 0)"/>
     <use xlink:href="#ArialMT-6e" transform="translate(489.111328 0)"/>
     <use xlink:href="#ArialMT-74" transform="translate(544.726562 0)"/>
     <use xlink:href="#ArialMT-6f" transform="translate(572.509766 0)"/>
    </g>
   </g>
  </g>
  <g id="axes_2">
   <g id="matplotlib.axis_3"/>
   <g id="matplotlib.axis_4"/>
   <g id="patch_7">
    <path d="M 890.586648 176.050375 
C 851.505413 176.050375 813.155092 186.714614 779.68399 206.889555 
C 746.212888 227.064496 718.872986 255.995497 700.621607 290.553132 
C 682.370228 325.110766 673.890061 364.002408 676.098396 403.021201 
C 678.306731 442.039994 691.120964 479.726443 713.154997 512.004056 
C 735.189031 544.28167 765.618683 569.943105 801.15242 586.212601 
C 836.686157 602.482096 875.994843 608.751092 914.826508 604.341479 
C 953.658174 599.931866 990.560325 585.008587 1021.541306 561.185871 
C 1052.522286 537.363155 1076.423255 505.53209 1090.658877 469.135798 
L 890.586648 390.881875 
z
" style="fill: #66c2a5; stroke: #ffffff; stroke-linejoin: miter"/>
   </g>
   <g id="patch_8">
    <path d="M 1090.658887 469.135774 
C 1100.171061 444.815937 1105.169706 418.964221 1105.40912 392.851417 
C 1105.648534 366.738612 1101.124736 340.799685 1092.06007 316.309529 
L 890.586648 390.881875 
z
" style="fill: #e78ac3; stroke: #ffffff; stroke-linejoin: miter"/>
   </g>
   <g id="patch_9">
    <path d="M 1092.06007 316.309529 
C 1084.83075 296.777945 1074.799502 278.401023 1062.281583 261.756271 
C 1049.763663 245.111519 1034.891604 230.37518 1018.132799 218.010382 
L 890.586648 390.881875 
z
" style="fill: #e5c494; stroke: #ffffff; stroke-linejoin: miter"/>
   </g>
   <g id="patch_10">
    <path d="M 1018.132799 218.010382 
C 1004.734206 208.124778 990.231595 199.830304 974.917336 193.294155 
C 959.603077 186.758007 943.580775 182.024399 927.173264 179.188716 
L 890.586648 390.881875 
z
" style="fill: #b3b3b3; stroke: #ffffff; stroke-linejoin: miter"/>
   </g>
   <g id="patch_11">
    <path d="M 927.173264 179.188716 
C 923.075694 178.480538 918.958427 177.891484 914.826665 177.422285 
C 910.694903 176.953086 906.550389 176.603959 902.39836 176.375326 
L 890.586648 390.881875 
z
" style="fill: #a6d854; stroke: #ffffff; stroke-linejoin: miter"/>
   </g>
   <g id="patch_12">
    <path d="M 902.39836 176.375326 
C 900.431718 176.267035 898.46363 176.1858 896.494754 176.131635 
C 894.525878 176.07747 892.556401 176.050375 890.58678 176.050375 
L 890.586648 390.881875 
z
" style="fill: #fc8d62; stroke: #ffffff; stroke-linejoin: miter"/>
   </g>
   <g id="text_4">
    <!-- 69.1% -->
    <g transform="translate(761.445167 467.691448) scale(0.16 -0.16)">
     <use xlink:href="#ArialMT-36"/>
     <use xlink:href="#ArialMT-39" transform="translate(55.615234 0)"/>
     <use xlink:href="#ArialMT-2e" transform="translate(111.230469 0)"/>
     <use xlink:href="#ArialMT-31" transform="translate(139.013672 0)"/>
     <use xlink:href="#ArialMT-25" transform="translate(194.628906 0)"/>
    </g>
   </g>
   <g id="text_5">
    <!-- 11.6% -->
    <g transform="translate(997.387631 396.19985) scale(0.16 -0.16)">
     <use xlink:href="#ArialMT-31"/>
     <use xlink:href="#ArialMT-31" transform="translate(48.240234 0)"/>
     <use xlink:href="#ArialMT-2e" transform="translate(103.855469 0)"/>
     <use xlink:href="#ArialMT-36" transform="translate(131.638672 0)"/>
     <use xlink:href="#ArialMT-25" transform="translate(187.253906 0)"/>
    </g>
   </g>
   <g id="text_6">
    <!-- 9.2% -->
    <g transform="translate(975.369822 317.542711) scale(0.16 -0.16)">
     <defs>
      <path id="ArialMT-32" d="M 3222 541 
L 3222 0 
L 194 0 
Q 188 203 259 391 
Q 375 700 629 1000 
Q 884 1300 1366 1694 
Q 2113 2306 2375 2664 
Q 2638 3022 2638 3341 
Q 2638 3675 2398 3904 
Q 2159 4134 1775 4134 
Q 1369 4134 1125 3890 
Q 881 3647 878 3216 
L 300 3275 
Q 359 3922 746 4261 
Q 1134 4600 1788 4600 
Q 2447 4600 2831 4234 
Q 3216 3869 3216 3328 
Q 3216 3053 3103 2787 
Q 2991 2522 2730 2228 
Q 2469 1934 1863 1422 
Q 1356 997 1212 845 
Q 1069 694 975 541 
L 3222 541 
z
" transform="scale(0.015625)"/>
     </defs>
     <use xlink:href="#ArialMT-39"/>
     <use xlink:href="#ArialMT-2e" transform="translate(55.615234 0)"/>
     <use xlink:href="#ArialMT-32" transform="translate(83.398438 0)"/>
     <use xlink:href="#ArialMT-25" transform="translate(139.013672 0)"/>
    </g>
   </g>
   <g id="text_7">
    <!-- 7.4% -->
    <g transform="translate(922.951252 276.465466) scale(0.16 -0.16)">
     <defs>
      <path id="ArialMT-37" d="M 303 3981 
L 303 4522 
L 3269 4522 
L 3269 4084 
Q 2831 3619 2401 2847 
Q 1972 2075 1738 1259 
Q 1569 684 1522 0 
L 944 0 
Q 953 541 1156 1306 
Q 1359 2072 1739 2783 
Q 2119 3494 2547 3981 
L 303 3981 
z
" transform="scale(0.015625)"/>
      <path id="ArialMT-34" d="M 2069 0 
L 2069 1097 
L 81 1097 
L 81 1613 
L 2172 4581 
L 2631 4581 
L 2631 1613 
L 3250 1613 
L 3250 1097 
L 2631 1097 
L 2631 0 
L 2069 0 
z
M 2069 1613 
L 2069 3678 
L 634 1613 
L 2069 1613 
z
" transform="scale(0.015625)"/>
     </defs>
     <use xlink:href="#ArialMT-37"/>
     <use xlink:href="#ArialMT-2e" transform="translate(55.615234 0)"/>
     <use xlink:href="#ArialMT-34" transform="translate(83.398438 0)"/>
     <use xlink:href="#ArialMT-25" transform="translate(139.013672 0)"/>
    </g>
   </g>
   <g id="text_8">
    <!-- Minas Gerais -->
    <g style="fill: #262626" transform="translate(834.628679 116.3425) scale(0.19 -0.19)">
     <defs>
      <path id="ArialMT-4d" d="M 475 0 
L 475 4581 
L 1388 4581 
L 2472 1338 
Q 2622 884 2691 659 
Q 2769 909 2934 1394 
L 4031 4581 
L 4847 4581 
L 4847 0 
L 4263 0 
L 4263 3834 
L 2931 0 
L 2384 0 
L 1059 3900 
L 1059 0 
L 475 0 
z
" transform="scale(0.015625)"/>
      <path id="ArialMT-47" d="M 2638 1797 
L 2638 2334 
L 4578 2338 
L 4578 638 
Q 4131 281 3656 101 
Q 3181 -78 2681 -78 
Q 2006 -78 1454 211 
Q 903 500 622 1047 
Q 341 1594 341 2269 
Q 341 2938 620 3517 
Q 900 4097 1425 4378 
Q 1950 4659 2634 4659 
Q 3131 4659 3532 4498 
Q 3934 4338 4162 4050 
Q 4391 3763 4509 3300 
L 3963 3150 
Q 3859 3500 3706 3700 
Q 3553 3900 3268 4020 
Q 2984 4141 2638 4141 
Q 2222 4141 1919 4014 
Q 1616 3888 1430 3681 
Q 1244 3475 1141 3228 
Q 966 2803 966 2306 
Q 966 1694 1177 1281 
Q 1388 869 1791 669 
Q 2194 469 2647 469 
Q 3041 469 3416 620 
Q 3791 772 3984 944 
L 3984 1797 
L 2638 1797 
z
" transform="scale(0.015625)"/>
      <path id="ArialMT-65" d="M 2694 1069 
L 3275 997 
Q 3138 488 2766 206 
Q 2394 -75 1816 -75 
Q 1088 -75 661 373 
Q 234 822 234 1631 
Q 234 2469 665 2931 
Q 1097 3394 1784 3394 
Q 2450 3394 2872 2941 
Q 3294 2488 3294 1666 
Q 3294 1616 3291 1516 
L 816 1516 
Q 847 969 1125 678 
Q 1403 388 1819 388 
Q 2128 388 2347 550 
Q 2566 713 2694 1069 
z
M 847 1978 
L 2700 1978 
Q 2663 2397 2488 2606 
Q 2219 2931 1791 2931 
Q 1403 2931 1139 2672 
Q 875 2413 847 1978 
z
" transform="scale(0.015625)"/>
     </defs>
     <use xlink:href="#ArialMT-4d"/>
     <use xlink:href="#ArialMT-69" transform="translate(83.300781 0)"/>
     <use xlink:href="#ArialMT-6e" transform="translate(105.517578 0)"/>
     <use xlink:href="#ArialMT-61" transform="translate(161.132812 0)"/>
     <use xlink:href="#ArialMT-73" transform="translate(216.748047 0)"/>
     <use xlink:href="#ArialMT-20" transform="translate(266.748047 0)"/>
     <use xlink:href="#ArialMT-47" transform="translate(294.53125 0)"/>
     <use xlink:href="#ArialMT-65" transform="translate(372.314453 0)"/>
     <use xlink:href="#ArialMT-72" transform="translate(427.929688 0)"/>
     <use xlink:href="#ArialMT-61" transform="translate(461.230469 0)"/>
     <use xlink:href="#ArialMT-69" transform="translate(516.845703 0)"/>
     <use xlink:href="#ArialMT-73" transform="translate(539.0625 0)"/>
    </g>
   </g>
  </g>
  <g id="axes_3">
   <g id="matplotlib.axis_5"/>
   <g id="matplotlib.axis_6"/>
   <g id="patch_13">
    <path d="M 275.739375 745.529125 
C 244.904057 745.529125 214.427113 752.167934 186.385513 764.993123 
C 158.343913 777.818313 133.389466 796.531771 113.22279 819.858194 
C 93.056115 843.184618 78.145972 870.5818 69.508473 900.182651 
C 60.870974 929.783503 58.706891 960.899973 63.163703 991.411506 
C 67.620516 1021.923039 78.594629 1051.120415 95.338169 1077.013864 
C 112.081708 1102.907313 134.205481 1124.894959 160.201777 1141.478368 
C 186.198072 1158.061777 215.462623 1168.855477 246.001082 1173.123891 
C 276.539541 1177.392305 307.642061 1175.036215 337.18904 1166.216186 
L 275.739375 960.360625 
z
" style="fill: #fc8d62; stroke: #ffffff; stroke-linejoin: miter"/>
   </g>
   <g id="patch_14">
    <path d="M 337.189075 1166.216171 
C 374.111478 1155.194511 407.397466 1134.439535 433.543776 1106.135616 
C 459.690086 1077.831697 477.746149 1043.007917 485.811747 1005.329179 
L 275.739375 960.360625 
z
" style="fill: #a6d854; stroke: #ffffff; stroke-linejoin: miter"/>
   </g>
   <g id="patch_15">
    <path d="M 485.811747 1005.329179 
C 492.001189 976.414946 492.154899 946.531782 486.263211 917.555411 
C 480.371523 888.579042 468.560361 861.128663 451.571066 836.927297 
L 275.739375 960.360625 
z
" style="fill: #e5c494; stroke: #ffffff; stroke-linejoin: miter"/>
   </g>
   <g id="patch_16">
    <path d="M 451.571066 836.927297 
C 436.034686 814.79561 416.458573 795.794926 393.873334 780.925568 
C 371.288094 766.056211 346.097149 755.583794 319.626867 750.059736 
L 275.739375 960.360625 
z
" style="fill: #66c2a5; stroke: #ffffff; stroke-linejoin: miter"/>
   </g>
   <g id="patch_17">
    <path d="M 319.626867 750.059736 
C 312.558506 748.584643 305.420323 747.466873 298.239397 746.710625 
C 291.058471 745.954378 283.84393 745.560651 276.623354 745.530943 
L 275.739375 960.360625 
z
" style="fill: #b3b3b3; stroke: #ffffff; stroke-linejoin: miter"/>
   </g>
   <g id="patch_18">
    <path d="M 276.623354 745.530943 
C 276.476013 745.530341 276.328671 745.529893 276.181329 745.529586 
C 276.033987 745.529279 275.886645 745.529125 275.739302 745.529125 
L 275.739375 960.360625 
z
" style="fill: #e78ac3; stroke: #ffffff; stroke-linejoin: miter"/>
   </g>
   <g id="text_9">
    <!-- 54.6% -->
    <g transform="translate(125.51148 983.127455) scale(0.16 -0.16)">
     <defs>
      <path id="ArialMT-35" d="M 266 1200 
L 856 1250 
Q 922 819 1161 601 
Q 1400 384 1738 384 
Q 2144 384 2425 690 
Q 2706 997 2706 1503 
Q 2706 1984 2436 2262 
Q 2166 2541 1728 2541 
Q 1456 2541 1237 2417 
Q 1019 2294 894 2097 
L 366 2166 
L 809 4519 
L 3088 4519 
L 3088 3981 
L 1259 3981 
L 1013 2750 
Q 1425 3038 1878 3038 
Q 2478 3038 2890 2622 
Q 3303 2206 3303 1553 
Q 3303 931 2941 478 
Q 2500 -78 1738 -78 
Q 1113 -78 717 272 
Q 322 622 266 1200 
z
" transform="scale(0.015625)"/>
     </defs>
     <use xlink:href="#ArialMT-35"/>
     <use xlink:href="#ArialMT-34" transform="translate(55.615234 0)"/>
     <use xlink:href="#ArialMT-2e" transform="translate(111.230469 0)"/>
     <use xlink:href="#ArialMT-36" transform="translate(139.013672 0)"/>
     <use xlink:href="#ArialMT-25" transform="translate(194.628906 0)"/>
    </g>
   </g>
   <g id="text_10">
    <!-- 17.0% -->
    <g transform="translate(347.739469 1051.961913) scale(0.16 -0.16)">
     <use xlink:href="#ArialMT-31"/>
     <use xlink:href="#ArialMT-37" transform="translate(55.615234 0)"/>
     <use xlink:href="#ArialMT-2e" transform="translate(111.230469 0)"/>
     <use xlink:href="#ArialMT-30" transform="translate(139.013672 0)"/>
     <use xlink:href="#ArialMT-25" transform="translate(194.628906 0)"/>
    </g>
   </g>
   <g id="text_11">
    <!-- 13.1% -->
    <g transform="translate(379.371179 938.813747) scale(0.16 -0.16)">
     <defs>
      <path id="ArialMT-33" d="M 269 1209 
L 831 1284 
Q 928 806 1161 595 
Q 1394 384 1728 384 
Q 2125 384 2398 659 
Q 2672 934 2672 1341 
Q 2672 1728 2419 1979 
Q 2166 2231 1775 2231 
Q 1616 2231 1378 2169 
L 1441 2663 
Q 1497 2656 1531 2656 
Q 1891 2656 2178 2843 
Q 2466 3031 2466 3422 
Q 2466 3731 2256 3934 
Q 2047 4138 1716 4138 
Q 1388 4138 1169 3931 
Q 950 3725 888 3313 
L 325 3413 
Q 428 3978 793 4289 
Q 1159 4600 1703 4600 
Q 2078 4600 2393 4439 
Q 2709 4278 2876 4000 
Q 3044 3722 3044 3409 
Q 3044 3113 2884 2869 
Q 2725 2625 2413 2481 
Q 2819 2388 3044 2092 
Q 3269 1797 3269 1353 
Q 3269 753 2831 336 
Q 2394 -81 1725 -81 
Q 1122 -81 723 278 
Q 325 638 269 1209 
z
" transform="scale(0.015625)"/>
     </defs>
     <use xlink:href="#ArialMT-31"/>
     <use xlink:href="#ArialMT-33" transform="translate(55.615234 0)"/>
     <use xlink:href="#ArialMT-2e" transform="translate(111.230469 0)"/>
     <use xlink:href="#ArialMT-31" transform="translate(139.013672 0)"/>
     <use xlink:href="#ArialMT-25" transform="translate(194.628906 0)"/>
    </g>
   </g>
   <g id="text_12">
    <!-- 12.0% -->
    <g transform="translate(323.937254 856.835841) scale(0.16 -0.16)">
     <use xlink:href="#ArialMT-31"/>
     <use xlink:href="#ArialMT-32" transform="translate(55.615234 0)"/>
     <use xlink:href="#ArialMT-2e" transform="translate(111.230469 0)"/>
     <use xlink:href="#ArialMT-30" transform="translate(139.013672 0)"/>
     <use xlink:href="#ArialMT-25" transform="translate(194.628906 0)"/>
    </g>
   </g>
   <g id="text_13">
    <!-- Rio de Janeiro -->
    <g style="fill: #262626" transform="translate(214.485156 685.82125) scale(0.19 -0.19)">
     <defs>
      <path id="ArialMT-52" d="M 503 0 
L 503 4581 
L 2534 4581 
Q 3147 4581 3465 4457 
Q 3784 4334 3975 4021 
Q 4166 3709 4166 3331 
Q 4166 2844 3850 2509 
Q 3534 2175 2875 2084 
Q 3116 1969 3241 1856 
Q 3506 1613 3744 1247 
L 4541 0 
L 3778 0 
L 3172 953 
Q 2906 1366 2734 1584 
Q 2563 1803 2427 1890 
Q 2291 1978 2150 2013 
Q 2047 2034 1813 2034 
L 1109 2034 
L 1109 0 
L 503 0 
z
M 1109 2559 
L 2413 2559 
Q 2828 2559 3062 2645 
Q 3297 2731 3419 2920 
Q 3541 3109 3541 3331 
Q 3541 3656 3305 3865 
Q 3069 4075 2559 4075 
L 1109 4075 
L 1109 2559 
z
" transform="scale(0.015625)"/>
      <path id="ArialMT-64" d="M 2575 0 
L 2575 419 
Q 2259 -75 1647 -75 
Q 1250 -75 917 144 
Q 584 363 401 755 
Q 219 1147 219 1656 
Q 219 2153 384 2558 
Q 550 2963 881 3178 
Q 1213 3394 1622 3394 
Q 1922 3394 2156 3267 
Q 2391 3141 2538 2938 
L 2538 4581 
L 3097 4581 
L 3097 0 
L 2575 0 
z
M 797 1656 
Q 797 1019 1065 703 
Q 1334 388 1700 388 
Q 2069 388 2326 689 
Q 2584 991 2584 1609 
Q 2584 2291 2321 2609 
Q 2059 2928 1675 2928 
Q 1300 2928 1048 2622 
Q 797 2316 797 1656 
z
" transform="scale(0.015625)"/>
      <path id="ArialMT-4a" d="M 184 1300 
L 731 1375 
Q 753 850 928 656 
Q 1103 463 1413 463 
Q 1641 463 1806 567 
Q 1972 672 2034 851 
Q 2097 1031 2097 1425 
L 2097 4581 
L 2703 4581 
L 2703 1459 
Q 2703 884 2564 568 
Q 2425 253 2123 87 
Q 1822 -78 1416 -78 
Q 813 -78 492 269 
Q 172 616 184 1300 
z
" transform="scale(0.015625)"/>
     </defs>
     <use xlink:href="#ArialMT-52"/>
     <use xlink:href="#ArialMT-69" transform="translate(72.216797 0)"/>
     <use xlink:href="#ArialMT-6f" transform="translate(94.433594 0)"/>
     <use xlink:href="#ArialMT-20" transform="translate(150.048828 0)"/>
     <use xlink:href="#ArialMT-64" transform="translate(177.832031 0)"/>
     <use xlink:href="#ArialMT-65" transform="translate(233.447266 0)"/>
     <use xlink:href="#ArialMT-20" transform="translate(289.0625 0)"/>
     <use xlink:href="#ArialMT-4a" transform="translate(316.845703 0)"/>
     <use xlink:href="#ArialMT-61" transform="translate(366.845703 0)"/>
     <use xlink:href="#ArialMT-6e" transform="translate(422.460938 0)"/>
     <use xlink:href="#ArialMT-65" transform="translate(478.076172 0)"/>
     <use xlink:href="#ArialMT-69" transform="translate(533.691406 0)"/>
     <use xlink:href="#ArialMT-72" transform="translate(555.908203 0)"/>
     <use xlink:href="#ArialMT-6f" transform="translate(589.208984 0)"/>
    </g>
   </g>
  </g>
  <g id="axes_4">
   <g id="matplotlib.axis_7"/>
   <g id="matplotlib.axis_8"/>
   <g id="patch_19">
    <path d="M 890.586648 745.529125 
C 838.251272 745.529125 787.677806 764.653356 748.437364 799.282524 
C 709.196923 833.911692 683.931623 881.714165 677.422967 933.64324 
C 670.914311 985.572316 683.600536 1038.131535 713.080751 1081.373972 
C 742.560967 1124.616409 786.850228 1155.63049 837.566713 1168.546743 
L 890.586648 960.360625 
z
" style="fill: #66c2a5; stroke: #ffffff; stroke-linejoin: miter"/>
   </g>
   <g id="patch_20">
    <path d="M 837.566719 1168.54675 
C 887.055669 1181.150373 939.45295 1175.70376 985.291604 1153.190971 
C 1031.130251 1130.678182 1067.472673 1092.541991 1087.752624 1045.672698 
L 890.586648 960.360625 
z
" style="fill: #fc8d62; stroke: #ffffff; stroke-linejoin: miter"/>
   </g>
   <g id="patch_21">
    <path d="M 1087.752624 1045.672698 
C 1100.069531 1017.206918 1106.076988 986.408558 1105.360884 955.400593 
C 1104.64478 924.392629 1097.221939 893.904329 1083.604061 866.0375 
L 890.586648 960.360625 
z
" style="fill: #a6d854; stroke: #ffffff; stroke-linejoin: miter"/>
   </g>
   <g id="patch_22">
    <path d="M 1083.604061 866.0375 
C 1072.457297 843.227387 1057.354851 822.572789 1038.998896 805.033957 
C 1020.642942 787.495125 999.322422 773.348172 976.028698 763.25094 
L 890.586648 960.360625 
z
" style="fill: #e5c494; stroke: #ffffff; stroke-linejoin: miter"/>
   </g>
   <g id="patch_23">
    <path d="M 976.028698 763.25094 
C 962.666727 757.458862 948.750404 753.040473 934.494497 750.063987 
C 920.23859 747.087501 905.716852 745.568295 891.153578 745.529868 
L 890.586648 960.360625 
z
" style="fill: #b3b3b3; stroke: #ffffff; stroke-linejoin: miter"/>
   </g>
   <g id="patch_24">
    <path d="M 891.153578 745.529868 
C 891.059095 745.529624 890.964611 745.529445 890.870128 745.529317 
C 890.775645 745.529189 890.681161 745.529125 890.586678 745.529125 
L 890.586648 960.360625 
z
" style="fill: #e78ac3; stroke: #ffffff; stroke-linejoin: miter"/>
   </g>
   <g id="text_14">
    <!-- 46.0% -->
    <g transform="translate(740.005938 948.466457) scale(0.16 -0.16)">
     <use xlink:href="#ArialMT-34"/>
     <use xlink:href="#ArialMT-36" transform="translate(55.615234 0)"/>
     <use xlink:href="#ArialMT-2e" transform="translate(111.230469 0)"/>
     <use xlink:href="#ArialMT-30" transform="translate(139.013672 0)"/>
     <use xlink:href="#ArialMT-25" transform="translate(194.628906 0)"/>
    </g>
   </g>
   <g id="text_15">
    <!-- 22.5% -->
    <g transform="translate(924.727122 1080.195086) scale(0.16 -0.16)">
     <use xlink:href="#ArialMT-32"/>
     <use xlink:href="#ArialMT-32" transform="translate(55.615234 0)"/>
     <use xlink:href="#ArialMT-2e" transform="translate(111.230469 0)"/>
     <use xlink:href="#ArialMT-35" transform="translate(139.013672 0)"/>
     <use xlink:href="#ArialMT-25" transform="translate(194.628906 0)"/>
    </g>
   </g>
   <g id="text_16">
    <!-- 13.7% -->
    <g transform="translate(996.768685 961.520733) scale(0.16 -0.16)">
     <use xlink:href="#ArialMT-31"/>
     <use xlink:href="#ArialMT-33" transform="translate(55.615234 0)"/>
     <use xlink:href="#ArialMT-2e" transform="translate(111.230469 0)"/>
     <use xlink:href="#ArialMT-37" transform="translate(139.013672 0)"/>
     <use xlink:href="#ArialMT-25" transform="translate(194.628906 0)"/>
    </g>
   </g>
   <g id="text_17">
    <!-- 11.3% -->
    <g transform="translate(957.541413 871.300786) scale(0.16 -0.16)">
     <use xlink:href="#ArialMT-31"/>
     <use xlink:href="#ArialMT-31" transform="translate(48.240234 0)"/>
     <use xlink:href="#ArialMT-2e" transform="translate(103.855469 0)"/>
     <use xlink:href="#ArialMT-33" transform="translate(131.638672 0)"/>
     <use xlink:href="#ArialMT-25" transform="translate(187.253906 0)"/>
    </g>
   </g>
   <g id="text_18">
    <!-- 6.5% -->
    <g transform="translate(898.697548 838.318882) scale(0.16 -0.16)">
     <use xlink:href="#ArialMT-36"/>
     <use xlink:href="#ArialMT-2e" transform="translate(55.615234 0)"/>
     <use xlink:href="#ArialMT-35" transform="translate(83.398438 0)"/>
     <use xlink:href="#ArialMT-25" transform="translate(139.013672 0)"/>
    </g>
   </g>
   <g id="text_19">
    <!-- São Paulo -->
    <g style="fill: #262626" transform="translate(846.748601 685.82125) scale(0.19 -0.19)">
     <defs>
      <path id="ArialMT-e3" d="M 2588 409 
Q 2275 144 1986 34 
Q 1697 -75 1366 -75 
Q 819 -75 525 192 
Q 231 459 231 875 
Q 231 1119 342 1320 
Q 453 1522 633 1644 
Q 813 1766 1038 1828 
Q 1203 1872 1538 1913 
Q 2219 1994 2541 2106 
Q 2544 2222 2544 2253 
Q 2544 2597 2384 2738 
Q 2169 2928 1744 2928 
Q 1347 2928 1158 2789 
Q 969 2650 878 2297 
L 328 2372 
Q 403 2725 575 2942 
Q 747 3159 1072 3276 
Q 1397 3394 1825 3394 
Q 2250 3394 2515 3294 
Q 2781 3194 2906 3042 
Q 3031 2891 3081 2659 
Q 3109 2516 3109 2141 
L 3109 1391 
Q 3109 606 3145 398 
Q 3181 191 3288 0 
L 2700 0 
Q 2613 175 2588 409 
z
M 2541 1666 
Q 2234 1541 1622 1453 
Q 1275 1403 1131 1340 
Q 988 1278 909 1158 
Q 831 1038 831 891 
Q 831 666 1001 516 
Q 1172 366 1500 366 
Q 1825 366 2078 508 
Q 2331 650 2450 897 
Q 2541 1088 2541 1459 
L 2541 1666 
z
M 718 3809 
Q 715 4134 896 4328 
Q 1074 4522 1352 4522 
Q 1546 4522 1880 4353 
Q 2065 4259 2174 4259 
Q 2274 4259 2327 4314 
Q 2380 4369 2402 4531 
L 2809 4531 
Q 2799 4175 2629 3997 
Q 2459 3819 2196 3819 
Q 1999 3819 1677 3994 
Q 1468 4106 1371 4106 
Q 1265 4106 1199 4031 
Q 1130 3956 1134 3809 
L 718 3809 
z
" transform="scale(0.015625)"/>
      <path id="ArialMT-50" d="M 494 0 
L 494 4581 
L 2222 4581 
Q 2678 4581 2919 4538 
Q 3256 4481 3484 4323 
Q 3713 4166 3852 3881 
Q 3991 3597 3991 3256 
Q 3991 2672 3619 2267 
Q 3247 1863 2275 1863 
L 1100 1863 
L 1100 0 
L 494 0 
z
M 1100 2403 
L 2284 2403 
Q 2872 2403 3119 2622 
Q 3366 2841 3366 3238 
Q 3366 3525 3220 3729 
Q 3075 3934 2838 4000 
Q 2684 4041 2272 4041 
L 1100 4041 
L 1100 2403 
z
" transform="scale(0.015625)"/>
      <path id="ArialMT-75" d="M 2597 0 
L 2597 488 
Q 2209 -75 1544 -75 
Q 1250 -75 995 37 
Q 741 150 617 320 
Q 494 491 444 738 
Q 409 903 409 1263 
L 409 3319 
L 972 3319 
L 972 1478 
Q 972 1038 1006 884 
Q 1059 663 1231 536 
Q 1403 409 1656 409 
Q 1909 409 2131 539 
Q 2353 669 2445 892 
Q 2538 1116 2538 1541 
L 2538 3319 
L 3100 3319 
L 3100 0 
L 2597 0 
z
" transform="scale(0.015625)"/>
      <path id="ArialMT-6c" d="M 409 0 
L 409 4581 
L 972 4581 
L 972 0 
L 409 0 
z
" transform="scale(0.015625)"/>
     </defs>
     <use xlink:href="#ArialMT-53"/>
     <use xlink:href="#ArialMT-e3" transform="translate(66.699219 0)"/>
     <use xlink:href="#ArialMT-6f" transform="translate(122.314453 0)"/>
     <use xlink:href="#ArialMT-20" transform="translate(177.929688 0)"/>
     <use xlink:href="#ArialMT-50" transform="translate(205.712891 0)"/>
     <use xlink:href="#ArialMT-61" transform="translate(272.412109 0)"/>
     <use xlink:href="#ArialMT-75" transform="translate(328.027344 0)"/>
     <use xlink:href="#ArialMT-6c" transform="translate(383.642578 0)"/>
     <use xlink:href="#ArialMT-6f" transform="translate(405.859375 0)"/>
    </g>
   </g>
  </g>
  <g id="legend_1">
   <g id="text_20">
    <!-- Scientific Name -->
    <g style="fill: #262626" transform="translate(492.857699 33.410313) scale(0.26 -0.26)">
     <defs>
      <path id="ArialMT-63" d="M 2588 1216 
L 3141 1144 
Q 3050 572 2676 248 
Q 2303 -75 1759 -75 
Q 1078 -75 664 370 
Q 250 816 250 1647 
Q 250 2184 428 2587 
Q 606 2991 970 3192 
Q 1334 3394 1763 3394 
Q 2303 3394 2647 3120 
Q 2991 2847 3088 2344 
L 2541 2259 
Q 2463 2594 2264 2762 
Q 2066 2931 1784 2931 
Q 1359 2931 1093 2626 
Q 828 2322 828 1663 
Q 828 994 1084 691 
Q 1341 388 1753 388 
Q 2084 388 2306 591 
Q 2528 794 2588 1216 
z
" transform="scale(0.015625)"/>
      <path id="ArialMT-66" d="M 556 0 
L 556 2881 
L 59 2881 
L 59 3319 
L 556 3319 
L 556 3672 
Q 556 4006 616 4169 
Q 697 4388 901 4523 
Q 1106 4659 1475 4659 
Q 1713 4659 2000 4603 
L 1916 4113 
Q 1741 4144 1584 4144 
Q 1328 4144 1222 4034 
Q 1116 3925 1116 3625 
L 1116 3319 
L 1763 3319 
L 1763 2881 
L 1116 2881 
L 1116 0 
L 556 0 
z
" transform="scale(0.015625)"/>
      <path id="ArialMT-4e" d="M 488 0 
L 488 4581 
L 1109 4581 
L 3516 984 
L 3516 4581 
L 4097 4581 
L 4097 0 
L 3475 0 
L 1069 3600 
L 1069 0 
L 488 0 
z
" transform="scale(0.015625)"/>
      <path id="ArialMT-6d" d="M 422 0 
L 422 3319 
L 925 3319 
L 925 2853 
Q 1081 3097 1340 3245 
Q 1600 3394 1931 3394 
Q 2300 3394 2536 3241 
Q 2772 3088 2869 2813 
Q 3263 3394 3894 3394 
Q 4388 3394 4653 3120 
Q 4919 2847 4919 2278 
L 4919 0 
L 4359 0 
L 4359 2091 
Q 4359 2428 4304 2576 
Q 4250 2725 4106 2815 
Q 3963 2906 3769 2906 
Q 3419 2906 3187 2673 
Q 2956 2441 2956 1928 
L 2956 0 
L 2394 0 
L 2394 2156 
Q 2394 2531 2256 2718 
Q 2119 2906 1806 2906 
Q 1569 2906 1367 2781 
Q 1166 2656 1075 2415 
Q 984 2175 984 1722 
L 984 0 
L 422 0 
z
" transform="scale(0.015625)"/>
     </defs>
     <use xlink:href="#ArialMT-53"/>
     <use xlink:href="#ArialMT-63" transform="translate(66.699219 0)"/>
     <use xlink:href="#ArialMT-69" transform="translate(116.699219 0)"/>
     <use xlink:href="#ArialMT-65" transform="translate(138.916016 0)"/>
     <use xlink:href="#ArialMT-6e" transform="translate(194.53125 0)"/>
     <use xlink:href="#ArialMT-74" transform="translate(250.146484 0)"/>
     <use xlink:href="#ArialMT-69" transform="translate(277.929688 0)"/>
     <use xlink:href="#ArialMT-66" transform="translate(300.146484 0)"/>
     <use xlink:href="#ArialMT-69" transform="translate(327.929688 0)"/>
     <use xlink:href="#ArialMT-63" transform="translate(350.146484 0)"/>
     <use xlink:href="#ArialMT-20" transform="translate(400.146484 0)"/>
     <use xlink:href="#ArialMT-4e" transform="translate(427.929688 0)"/>
     <use xlink:href="#ArialMT-61" transform="translate(500.146484 0)"/>
     <use xlink:href="#ArialMT-6d" transform="translate(555.761719 0)"/>
     <use xlink:href="#ArialMT-65" transform="translate(639.0625 0)"/>
    </g>
   </g>
   <g id="patch_25">
    <path d="M 114.864964 61.909219 
L 152.864964 61.909219 
L 152.864964 48.609219 
L 114.864964 48.609219 
z
" style="fill: #66c2a5; stroke: #ffffff; stroke-linejoin: miter"/>
   </g>
   <g id="text_21">
    <!-- Callithrix penicillata -->
    <g style="fill: #262626" transform="translate(168.064964 61.909219) scale(0.19 -0.19)">
     <defs>
      <path id="ArialMT-43" d="M 3763 1606 
L 4369 1453 
Q 4178 706 3683 314 
Q 3188 -78 2472 -78 
Q 1731 -78 1267 223 
Q 803 525 561 1097 
Q 319 1669 319 2325 
Q 319 3041 592 3573 
Q 866 4106 1370 4382 
Q 1875 4659 2481 4659 
Q 3169 4659 3637 4309 
Q 4106 3959 4291 3325 
L 3694 3184 
Q 3534 3684 3231 3912 
Q 2928 4141 2469 4141 
Q 1941 4141 1586 3887 
Q 1231 3634 1087 3207 
Q 944 2781 944 2328 
Q 944 1744 1114 1308 
Q 1284 872 1643 656 
Q 2003 441 2422 441 
Q 2931 441 3284 734 
Q 3638 1028 3763 1606 
z
" transform="scale(0.015625)"/>
      <path id="ArialMT-68" d="M 422 0 
L 422 4581 
L 984 4581 
L 984 2938 
Q 1378 3394 1978 3394 
Q 2347 3394 2619 3248 
Q 2891 3103 3008 2847 
Q 3125 2591 3125 2103 
L 3125 0 
L 2563 0 
L 2563 2103 
Q 2563 2525 2380 2717 
Q 2197 2909 1863 2909 
Q 1613 2909 1392 2779 
Q 1172 2650 1078 2428 
Q 984 2206 984 1816 
L 984 0 
L 422 0 
z
" transform="scale(0.015625)"/>
      <path id="ArialMT-78" d="M 47 0 
L 1259 1725 
L 138 3319 
L 841 3319 
L 1350 2541 
Q 1494 2319 1581 2169 
Q 1719 2375 1834 2534 
L 2394 3319 
L 3066 3319 
L 1919 1756 
L 3153 0 
L 2463 0 
L 1781 1031 
L 1600 1309 
L 728 0 
L 47 0 
z
" transform="scale(0.015625)"/>
     </defs>
     <use xlink:href="#ArialMT-43"/>
     <use xlink:href="#ArialMT-61" transform="translate(72.216797 0)"/>
     <use xlink:href="#ArialMT-6c" transform="translate(127.832031 0)"/>
     <use xlink:href="#ArialMT-6c" transform="translate(150.048828 0)"/>
     <use xlink:href="#ArialMT-69" transform="translate(172.265625 0)"/>
     <use xlink:href="#ArialMT-74" transform="translate(194.482422 0)"/>
     <use xlink:href="#ArialMT-68" transform="translate(222.265625 0)"/>
     <use xlink:href="#ArialMT-72" transform="translate(277.880859 0)"/>
     <use xlink:href="#ArialMT-69" transform="translate(311.181641 0)"/>
     <use xlink:href="#ArialMT-78" transform="translate(333.398438 0)"/>
     <use xlink:href="#ArialMT-20" transform="translate(383.398438 0)"/>
     <use xlink:href="#ArialMT-70" transform="translate(411.181641 0)"/>
     <use xlink:href="#ArialMT-65" transform="translate(466.796875 0)"/>
     <use xlink:href="#ArialMT-6e" transform="translate(522.412109 0)"/>
     <use xlink:href="#ArialMT-69" transform="translate(578.027344 0)"/>
     <use xlink:href="#ArialMT-63" transform="translate(600.244141 0)"/>
     <use xlink:href="#ArialMT-69" transform="translate(650.244141 0)"/>
     <use xlink:href="#ArialMT-6c" transform="translate(672.460938 0)"/>
     <use xlink:href="#ArialMT-6c" transform="translate(694.677734 0)"/>
     <use xlink:href="#ArialMT-61" transform="translate(716.894531 0)"/>
     <use xlink:href="#ArialMT-74" transform="translate(772.509766 0)"/>
     <use xlink:href="#ArialMT-61" transform="translate(800.292969 0)"/>
    </g>
   </g>
   <g id="patch_26">
    <path d="M 114.864964 89.016875 
L 152.864964 89.016875 
L 152.864964 75.716875 
L 114.864964 75.716875 
z
" style="fill: #fc8d62; stroke: #ffffff; stroke-linejoin: miter"/>
   </g>
   <g id="text_22">
    <!-- Callithrix jacchus -->
    <g style="fill: #262626" transform="translate(168.064964 89.016875) scale(0.19 -0.19)">
     <defs>
      <path id="ArialMT-6a" d="M 419 3928 
L 419 4581 
L 981 4581 
L 981 3928 
L 419 3928 
z
M -294 -1288 
L -188 -809 
Q -19 -853 78 -853 
Q 250 -853 334 -739 
Q 419 -625 419 -169 
L 419 3319 
L 981 3319 
L 981 -181 
Q 981 -794 822 -1034 
Q 619 -1347 147 -1347 
Q -81 -1347 -294 -1288 
z
" transform="scale(0.015625)"/>
     </defs>
     <use xlink:href="#ArialMT-43"/>
     <use xlink:href="#ArialMT-61" transform="translate(72.216797 0)"/>
     <use xlink:href="#ArialMT-6c" transform="translate(127.832031 0)"/>
     <use xlink:href="#ArialMT-6c" transform="translate(150.048828 0)"/>
     <use xlink:href="#ArialMT-69" transform="translate(172.265625 0)"/>
     <use xlink:href="#ArialMT-74" transform="translate(194.482422 0)"/>
     <use xlink:href="#ArialMT-68" transform="translate(222.265625 0)"/>
     <use xlink:href="#ArialMT-72" transform="translate(277.880859 0)"/>
     <use xlink:href="#ArialMT-69" transform="translate(311.181641 0)"/>
     <use xlink:href="#ArialMT-78" transform="translate(333.398438 0)"/>
     <use xlink:href="#ArialMT-20" transform="translate(383.398438 0)"/>
     <use xlink:href="#ArialMT-6a" transform="translate(411.181641 0)"/>
     <use xlink:href="#ArialMT-61" transform="translate(433.398438 0)"/>
     <use xlink:href="#ArialMT-63" transform="translate(489.013672 0)"/>
     <use xlink:href="#ArialMT-63" transform="translate(539.013672 0)"/>
     <use xlink:href="#ArialMT-68" transform="translate(589.013672 0)"/>
     <use xlink:href="#ArialMT-75" transform="translate(644.628906 0)"/>
     <use xlink:href="#ArialMT-73" transform="translate(700.244141 0)"/>
    </g>
   </g>
   <g id="patch_27">
    <path d="M 368.681214 61.909219 
L 406.681214 61.909219 
L 406.681214 48.609219 
L 368.681214 48.609219 
z
" style="fill: #e78ac3; stroke: #ffffff; stroke-linejoin: miter"/>
   </g>
   <g id="text_23">
    <!-- Outras -->
    <g style="fill: #262626" transform="translate(421.881214 61.909219) scale(0.19 -0.19)">
     <defs>
      <path id="ArialMT-4f" d="M 309 2231 
Q 309 3372 921 4017 
Q 1534 4663 2503 4663 
Q 3138 4663 3647 4359 
Q 4156 4056 4423 3514 
Q 4691 2972 4691 2284 
Q 4691 1588 4409 1038 
Q 4128 488 3612 205 
Q 3097 -78 2500 -78 
Q 1853 -78 1343 234 
Q 834 547 571 1087 
Q 309 1628 309 2231 
z
M 934 2222 
Q 934 1394 1379 917 
Q 1825 441 2497 441 
Q 3181 441 3623 922 
Q 4066 1403 4066 2288 
Q 4066 2847 3877 3264 
Q 3688 3681 3323 3911 
Q 2959 4141 2506 4141 
Q 1863 4141 1398 3698 
Q 934 3256 934 2222 
z
" transform="scale(0.015625)"/>
     </defs>
     <use xlink:href="#ArialMT-4f"/>
     <use xlink:href="#ArialMT-75" transform="translate(77.783203 0)"/>
     <use xlink:href="#ArialMT-74" transform="translate(133.398438 0)"/>
     <use xlink:href="#ArialMT-72" transform="translate(161.181641 0)"/>
     <use xlink:href="#ArialMT-61" transform="translate(194.482422 0)"/>
     <use xlink:href="#ArialMT-73" transform="translate(250.097656 0)"/>
    </g>
   </g>
   <g id="patch_28">
    <path d="M 368.681214 89.016875 
L 406.681214 89.016875 
L 406.681214 75.716875 
L 368.681214 75.716875 
z
" style="fill: #a6d854; stroke: #ffffff; stroke-linejoin: miter"/>
   </g>
   <g id="text_24">
    <!-- Callithrix jacchus × penicillata -->
    <g style="fill: #262626" transform="translate(421.881214 89.016875) scale(0.19 -0.19)">
     <defs>
      <path id="ArialMT-d7" d="M 503 1278 
L 1488 2263 
L 506 3244 
L 888 3625 
L 1869 2644 
L 2847 3622 
L 3222 3244 
L 2247 2266 
L 3228 1284 
L 2847 903 
L 1866 1884 
L 881 900 
L 503 1278 
z
" transform="scale(0.015625)"/>
     </defs>
     <use xlink:href="#ArialMT-43"/>
     <use xlink:href="#ArialMT-61" transform="translate(72.216797 0)"/>
     <use xlink:href="#ArialMT-6c" transform="translate(127.832031 0)"/>
     <use xlink:href="#ArialMT-6c" transform="translate(150.048828 0)"/>
     <use xlink:href="#ArialMT-69" transform="translate(172.265625 0)"/>
     <use xlink:href="#ArialMT-74" transform="translate(194.482422 0)"/>
     <use xlink:href="#ArialMT-68" transform="translate(222.265625 0)"/>
     <use xlink:href="#ArialMT-72" transform="translate(277.880859 0)"/>
     <use xlink:href="#ArialMT-69" transform="translate(311.181641 0)"/>
     <use xlink:href="#ArialMT-78" transform="translate(333.398438 0)"/>
     <use xlink:href="#ArialMT-20" transform="translate(383.398438 0)"/>
     <use xlink:href="#ArialMT-6a" transform="translate(411.181641 0)"/>
     <use xlink:href="#ArialMT-61" transform="translate(433.398438 0)"/>
     <use xlink:href="#ArialMT-63" transform="translate(489.013672 0)"/>
     <use xlink:href="#ArialMT-63" transform="translate(539.013672 0)"/>
     <use xlink:href="#ArialMT-68" transform="translate(589.013672 0)"/>
     <use xlink:href="#ArialMT-75" transform="translate(644.628906 0)"/>
     <use xlink:href="#ArialMT-73" transform="translate(700.244141 0)"/>
     <use xlink:href="#ArialMT-20" transform="translate(750.244141 0)"/>
     <use xlink:href="#ArialMT-d7" transform="translate(778.027344 0)"/>
     <use xlink:href="#ArialMT-20" transform="translate(836.425781 0)"/>
     <use xlink:href="#ArialMT-70" transform="translate(864.208984 0)"/>
     <use xlink:href="#ArialMT-65" transform="translate(919.824219 0)"/>
     <use xlink:href="#ArialMT-6e" transform="translate(975.439453 0)"/>
     <use xlink:href="#ArialMT-69" transform="translate(1031.054688 0)"/>
     <use xlink:href="#ArialMT-63" transform="translate(1053.271484 0)"/>
     <use xlink:href="#ArialMT-69" transform="translate(1103.271484 0)"/>
     <use xlink:href="#ArialMT-6c" transform="translate(1125.488281 0)"/>
     <use xlink:href="#ArialMT-6c" transform="translate(1147.705078 0)"/>
     <use xlink:href="#ArialMT-61" transform="translate(1169.921875 0)"/>
     <use xlink:href="#ArialMT-74" transform="translate(1225.537109 0)"/>
     <use xlink:href="#ArialMT-61" transform="translate(1253.320312 0)"/>
    </g>
   </g>
   <g id="patch_29">
    <path d="M 708.570433 61.909219 
L 746.570433 61.909219 
L 746.570433 48.609219 
L 708.570433 48.609219 
z
" style="fill: #e5c494; stroke: #ffffff; stroke-linejoin: miter"/>
   </g>
   <g id="text_25">
    <!-- Callithrix -->
    <g style="fill: #262626" transform="translate(761.770433 61.909219) scale(0.19 -0.19)">
     <use xlink:href="#ArialMT-43"/>
     <use xlink:href="#ArialMT-61" transform="translate(72.216797 0)"/>
     <use xlink:href="#ArialMT-6c" transform="translate(127.832031 0)"/>
     <use xlink:href="#ArialMT-6c" transform="translate(150.048828 0)"/>
     <use xlink:href="#ArialMT-69" transform="translate(172.265625 0)"/>
     <use xlink:href="#ArialMT-74" transform="translate(194.482422 0)"/>
     <use xlink:href="#ArialMT-68" transform="translate(222.265625 0)"/>
     <use xlink:href="#ArialMT-72" transform="translate(277.880859 0)"/>
     <use xlink:href="#ArialMT-69" transform="translate(311.181641 0)"/>
     <use xlink:href="#ArialMT-78" transform="translate(333.398438 0)"/>
    </g>
   </g>
   <g id="patch_30">
    <path d="M 872.614652 61.909219 
L 910.614652 61.909219 
L 910.614652 48.609219 
L 872.614652 48.609219 
z
" style="fill: #b3b3b3; stroke: #ffffff; stroke-linejoin: miter"/>
   </g>
   <g id="text_26">
    <!-- Callithrix aurita -->
    <g style="fill: #262626" transform="translate(925.814652 61.909219) scale(0.19 -0.19)">
     <use xlink:href="#ArialMT-43"/>
     <use xlink:href="#ArialMT-61" transform="translate(72.216797 0)"/>
     <use xlink:href="#ArialMT-6c" transform="translate(127.832031 0)"/>
     <use xlink:href="#ArialMT-6c" transform="translate(150.048828 0)"/>
     <use xlink:href="#ArialMT-69" transform="translate(172.265625 0)"/>
     <use xlink:href="#ArialMT-74" transform="translate(194.482422 0)"/>
     <use xlink:href="#ArialMT-68" transform="translate(222.265625 0)"/>
     <use xlink:href="#ArialMT-72" transform="translate(277.880859 0)"/>
     <use xlink:href="#ArialMT-69" transform="translate(311.181641 0)"/>
     <use xlink:href="#ArialMT-78" transform="translate(333.398438 0)"/>
     <use xlink:href="#ArialMT-20" transform="translate(383.398438 0)"/>
     <use xlink:href="#ArialMT-61" transform="translate(411.181641 0)"/>
     <use xlink:href="#ArialMT-75" transform="translate(466.796875 0)"/>
     <use xlink:href="#ArialMT-72" transform="translate(522.412109 0)"/>
     <use xlink:href="#ArialMT-69" transform="translate(555.712891 0)"/>
     <use xlink:href="#ArialMT-74" transform="translate(577.929688 0)"/>
     <use xlink:href="#ArialMT-61" transform="translate(605.712891 0)"/>
    </g>
   </g>
  </g>
 </g>
</svg>
